<svg width="65" height="43" viewBox="0 0 65 43" fill="none" xmlns="http://www.w3.org/2000/svg">
<rect width="64.5" height="43" fill="white"/>
<path d="M25.3544 10.2314H39.1515V32.7662H25.3544V10.2314Z" fill="#FF5F00"/>
<path d="M26.7755 21.5009C26.7738 19.331 27.2657 17.1892 28.2139 15.2374C29.1622 13.2857 30.542 11.5753 32.2489 10.2355C30.1348 8.57407 27.596 7.5409 24.9225 7.25412C22.249 6.96733 19.5487 7.43849 17.1303 8.61375C14.7119 9.789 12.6729 11.6209 11.2464 13.9002C9.81995 16.1794 9.06348 18.814 9.06348 21.5029C9.06348 24.1917 9.81995 26.8263 11.2464 29.1056C12.6729 31.3848 14.7119 33.2168 17.1303 34.392C19.5487 35.5673 22.249 36.0384 24.9225 35.7516C27.596 35.4649 30.1348 34.4317 32.2489 32.7702C30.5415 31.4301 29.1614 29.719 28.2131 27.7665C27.2648 25.8141 26.7732 23.6714 26.7755 21.5008V21.5009Z" fill="#EB001B"/>
<path d="M54.0671 30.3815V29.9198H54.2662V29.8242H53.7925V29.9198H53.9796V30.3816L54.0671 30.3815ZM54.9867 30.3815V29.8243H54.8434L54.6762 30.2223L54.509 29.8242H54.3657V30.3815H54.4692V29.9596L54.6245 30.3219H54.7319L54.8872 29.9596V30.3815H54.9867Z" fill="#F79E1B"/>
<path d="M55.4365 21.5007C55.4365 24.1898 54.6798 26.8246 53.253 29.1039C51.8263 31.3832 49.787 33.2151 47.3683 34.3902C44.9496 35.5653 42.2491 36.0361 39.5754 35.7489C36.9018 35.4617 34.3628 34.4281 32.2489 32.7661C33.9551 31.4251 35.3346 29.7142 36.2831 27.7624C37.2316 25.8106 37.7245 23.6688 37.7245 21.4987C37.7245 19.3286 37.2316 17.1869 36.2831 15.235C35.3346 13.2832 33.9551 11.5723 32.2489 10.2314C34.3628 8.56937 36.9018 7.53569 39.5754 7.24848C42.2491 6.96128 44.9496 7.43213 47.3683 8.60723C49.787 9.78233 51.8263 11.6142 53.2531 13.8936C54.6798 16.1729 55.4365 18.8077 55.4365 21.4968V21.5007Z" fill="#F79E1B"/>
</svg>
