<svg width="64" height="65" viewBox="0 0 64 65" fill="none" xmlns="http://www.w3.org/2000/svg">
<g clip-path="url(#clip0_2677_4379)">
<rect width="64" height="64" transform="translate(0 0.5)" fill="white"/>
<path d="M59.4872 12.4038H4.51282C2.02445 12.4038 0 14.3832 0 16.8161V48.1835C0 50.6165 2.02445 52.5958 4.51282 52.5958H59.4872C61.9754 52.5958 64 50.6165 64 48.1835V16.8161C64 14.3832 61.9754 12.4038 59.4872 12.4038Z" fill="white"/>
<path d="M13.9326 25.9254C13.2479 25.4547 12.3544 25.2188 11.2521 25.2188H6.98466C6.64674 25.2188 6.46005 25.3877 6.42459 25.7253L4.69099 36.6075C4.67297 36.7143 4.69971 36.8121 4.77096 36.901C4.84181 36.99 4.93091 37.0342 5.03763 37.0342H7.06464C7.42016 37.0342 7.61557 36.8657 7.65144 36.5276L8.13146 33.5939C8.14898 33.4517 8.21151 33.3361 8.31823 33.2471C8.42486 33.1582 8.55823 33.1001 8.71826 33.0734C8.8783 33.047 9.0292 33.0337 9.1717 33.0337C9.3138 33.0337 9.48263 33.0427 9.67853 33.0604C9.87395 33.0781 9.99851 33.0868 10.0519 33.0868C11.581 33.0868 12.7812 32.6559 13.6526 31.7933C14.5236 30.931 14.9596 29.7353 14.9596 28.2059C14.9596 27.157 14.617 26.3969 13.9326 25.9254ZM11.7323 29.1929C11.6431 29.8153 11.4122 30.2241 11.0388 30.4197C10.6654 30.6156 10.132 30.713 9.43861 30.713L8.5584 30.7397L9.01191 27.8858C9.04729 27.6904 9.16281 27.5926 9.35855 27.5926H9.86547C10.5764 27.5926 11.0923 27.695 11.4124 27.8992C11.7323 28.1038 11.839 28.5352 11.7323 29.1929Z" fill="#003087"/>
<path d="M58.9677 25.2188H56.9941C56.7981 25.2188 56.6826 25.3166 56.6474 25.5122L54.9136 36.6075L54.8869 36.6608C54.8869 36.7501 54.9225 36.8342 54.9938 36.9142C55.0645 36.9941 55.1538 37.0342 55.2604 37.0342H57.0209C57.3582 37.0342 57.545 36.8656 57.581 36.5275L59.3146 25.6186V25.5921C59.3145 25.3432 59.1986 25.2188 58.9677 25.2188Z" fill="#009CDE"/>
<path d="M35.1232 29.5125C35.1232 29.4238 35.0874 29.3392 35.0167 29.2593C34.9454 29.1794 34.8653 29.1392 34.7766 29.1392H32.7229C32.5269 29.1392 32.367 29.2285 32.2428 29.4058L29.4156 33.5668L28.2422 29.566C28.1529 29.2817 27.9574 29.1392 27.6554 29.1392H25.6548C25.5657 29.1392 25.4856 29.1793 25.4149 29.2593C25.3436 29.3392 25.3082 29.4239 25.3082 29.5125C25.3082 29.5484 25.4816 30.0727 25.8283 31.0862C26.1749 32.0999 26.5484 33.1934 26.9485 34.3671C27.3486 35.5405 27.5573 36.1632 27.5752 36.2339C26.1171 38.2255 25.3882 39.2924 25.3882 39.4344C25.3882 39.6658 25.5037 39.7812 25.7349 39.7812H27.7887C27.9842 39.7812 28.1442 39.6925 28.2688 39.5146L35.0701 29.6992C35.1054 29.6638 35.1232 29.6019 35.1232 29.5125Z" fill="#003087"/>
<path d="M54.2468 29.1394H52.2196C51.9705 29.1394 51.8198 29.4328 51.7665 30.0196C51.3037 29.3087 50.4596 28.9526 49.2325 28.9526C47.9522 28.9526 46.8629 29.4328 45.9653 30.393C45.0672 31.3533 44.6184 32.4825 44.6184 33.7804C44.6184 34.8297 44.925 35.6653 45.5384 36.2874C46.1519 36.9102 46.9742 37.2209 48.0058 37.2209C48.5213 37.2209 49.0458 37.1141 49.5792 36.9009C50.1127 36.6875 50.5302 36.4032 50.833 36.0474C50.833 36.0653 50.8149 36.1452 50.7796 36.2873C50.7437 36.4298 50.7262 36.5367 50.7262 36.6074C50.7262 36.8922 50.8414 37.0341 51.073 37.0341H52.9135C53.2508 37.0341 53.4467 36.8655 53.4999 36.5274L54.5936 29.5662C54.6111 29.4595 54.5844 29.3618 54.5135 29.2728C54.4422 29.184 54.3535 29.1394 54.2468 29.1394ZM50.7662 34.3938C50.3128 34.8383 49.7661 35.0605 49.1259 35.0605C48.6101 35.0605 48.1926 34.9185 47.8723 34.6338C47.5522 34.3498 47.3922 33.9585 47.3922 33.4603C47.3922 32.8028 47.6144 32.2468 48.059 31.7933C48.5031 31.3399 49.0548 31.1132 49.7127 31.1132C50.2101 31.1132 50.6236 31.2599 50.9529 31.5532C51.2816 31.8466 51.4464 32.2513 51.4464 32.767C51.4463 33.407 51.2196 33.9495 50.7662 34.3938Z" fill="#009CDE"/>
<path d="M23.9479 29.1394H21.9209C21.6716 29.1394 21.5208 29.4328 21.4674 30.0196C20.9873 29.3087 20.1426 28.9526 18.9336 28.9526C17.6533 28.9526 16.5641 29.4328 15.6663 30.393C14.7682 31.3533 14.3194 32.4825 14.3194 33.7804C14.3194 34.8297 14.6262 35.6653 15.2396 36.2874C15.8531 36.9102 16.6753 37.2209 17.7067 37.2209C18.2043 37.2209 18.7203 37.1141 19.2536 36.9009C19.787 36.6875 20.2138 36.4032 20.5339 36.0474C20.4625 36.2608 20.4272 36.4475 20.4272 36.6074C20.4272 36.8922 20.5427 37.0341 20.7739 37.0341H22.6142C22.9518 37.0341 23.1476 36.8655 23.201 36.5274L24.2945 29.5662C24.312 29.4595 24.2854 29.3618 24.2145 29.2728C24.1433 29.184 24.0546 29.1394 23.9479 29.1394ZM20.4673 34.407C20.0138 34.8431 19.4578 35.0605 18.8004 35.0605C18.2844 35.0605 17.871 34.9185 17.5601 34.6338C17.2487 34.3498 17.0932 33.9585 17.0932 33.4603C17.0932 32.8028 17.3154 32.2468 17.7601 31.7933C18.2043 31.3399 18.7556 31.1132 19.4137 31.1132C19.9114 31.1132 20.3248 31.2599 20.654 31.5532C20.9827 31.8466 21.1474 32.2513 21.1474 32.767C21.1474 33.4249 20.9207 33.9718 20.4673 34.407Z" fill="#003087"/>
<path d="M44.2316 25.9254C43.5469 25.4547 42.6536 25.2188 41.5511 25.2188H37.3104C36.9545 25.2188 36.7589 25.3877 36.7236 25.7253L34.9899 36.6074C34.9719 36.7143 34.9986 36.812 35.0699 36.9009C35.1405 36.9899 35.2299 37.0342 35.3366 37.0342H37.5235C37.7369 37.0342 37.8791 36.9187 37.9503 36.6875L38.4305 33.5938C38.4481 33.4516 38.5104 33.336 38.6172 33.247C38.7239 33.1581 38.8571 33.1 39.0173 33.0733C39.1773 33.0469 39.3282 33.0336 39.4707 33.0336C39.6128 33.0336 39.7817 33.0426 39.9773 33.0603C40.1729 33.0781 40.2977 33.0867 40.3507 33.0867C41.88 33.0867 43.08 32.6558 43.9515 31.7932C44.8227 30.931 45.2584 29.7353 45.2584 28.2059C45.2584 27.157 44.916 26.3969 44.2316 25.9254ZM41.4977 30.313C41.1065 30.5797 40.5197 30.713 39.7375 30.713L38.8839 30.7397L39.3374 27.8858C39.3727 27.6904 39.4882 27.5926 39.6841 27.5926H40.164C40.5551 27.5926 40.8663 27.6103 41.0978 27.6458C41.3286 27.6817 41.5511 27.7925 41.7645 27.9791C41.978 28.1659 42.0846 28.4371 42.0846 28.7928C42.0846 29.5395 41.8887 30.0462 41.4977 30.313Z" fill="#009CDE"/>
</g>
<defs>
<clipPath id="clip0_2677_4379">
<rect width="64" height="64" fill="white" transform="translate(0 0.5)"/>
</clipPath>
</defs>
</svg>
