<svg width="65" height="65" viewBox="0 0 65 65" fill="none" xmlns="http://www.w3.org/2000/svg">
<path d="M59.4286 10.6787H5.57144C2.75084 10.6787 0.464294 12.9653 0.464294 15.7859V49.2144C0.464294 52.035 2.75084 54.3216 5.57144 54.3216H59.4286C62.2492 54.3216 64.5357 52.035 64.5357 49.2144V15.7859C64.5357 12.9653 62.2492 10.6787 59.4286 10.6787Z" fill="white"/>
<path fill-rule="evenodd" clip-rule="evenodd" d="M19.7326 40.4082H15.7949L12.842 29.1429C12.7019 28.6248 12.4043 28.1666 11.9666 27.9507C10.8741 27.4082 9.6703 26.9763 8.35712 26.7586V26.3248H14.7005C15.576 26.3248 16.2326 26.9763 16.342 27.733L17.8741 35.8589L21.81 26.3248H25.6382L19.7326 40.4082ZM27.8269 40.4082H24.1081L27.1703 26.3248H30.8892L27.8269 40.4082ZM35.7005 30.2263C35.81 29.4678 36.4666 29.0341 37.2326 29.0341C38.4364 28.9252 39.7477 29.143 40.8421 29.6837L41.4987 26.6515C40.4043 26.2177 39.2005 26 38.1081 26C34.4986 26 31.8722 27.9507 31.8722 30.6582C31.8722 32.7178 33.7326 33.7993 35.0458 34.4507C36.4666 35.1004 37.0138 35.5341 36.9043 36.1837C36.9043 37.1582 35.81 37.5919 34.7175 37.5919C33.4043 37.5919 32.091 37.2671 30.8892 36.7244L30.2326 39.7585C31.5458 40.2993 32.9666 40.5171 34.2798 40.5171C38.3269 40.6241 40.8421 38.6752 40.8421 35.75C40.8421 32.0663 35.7005 31.8504 35.7005 30.2263ZM53.8571 40.4082L50.9043 26.3248H47.7326C47.0759 26.3248 46.4193 26.7586 46.2005 27.4082L40.7326 40.4082H44.5609L45.325 38.3504H50.0288L50.4665 40.4082H53.8571ZM48.2797 30.1175L49.3722 35.4252H46.31L48.2797 30.1175Z" fill="#172B85"/>
</svg>
